<?xml version="1.0" encoding="UTF-8"?>
<svg id="Calque_2" data-name="Calque 2" xmlns="http://www.w3.org/2000/svg" viewBox="0 0 268.04 265.89">
  <defs>
    <style>
      .cls-1 {
        stroke: #e16965;
      }

      .cls-1, .cls-2, .cls-3, .cls-4, .cls-5 {
        stroke-miterlimit: 10;
      }

      .cls-1, .cls-3, .cls-4, .cls-6, .cls-5 {
        fill: none;
      }

      .cls-1, .cls-4, .cls-6, .cls-5 {
        stroke-width: 3px;
      }

      .cls-2 {
        fill: #508ac9;
      }

      .cls-2, .cls-3 {
        stroke: #518ac9;
        stroke-width: 4px;
      }

      .cls-7 {
        fill: #1e1e1c;
      }

      .cls-4, .cls-6 {
        stroke: #010101;
      }

      .cls-6 {
        stroke-linecap: round;
        stroke-linejoin: round;
      }

      .cls-5 {
        stroke: #f3c43e;
      }
    </style>
  </defs>
  <g id="Calque_1-2" data-name="Calque 1">
    <g>
      <path class="cls-7" d="M4.36,255.78c0-5.85,4.46-10.11,10.48-10.11,3.05,0,5.7,1.04,7.51,3.08l-1.84,1.78c-1.52-1.61-3.39-2.34-5.56-2.34-4.46,0-7.77,3.22-7.77,7.6s3.3,7.6,7.77,7.6c2.17,0,4.04-.76,5.56-2.37l1.84,1.78c-1.81,2.03-4.46,3.11-7.54,3.11-5.99,0-10.45-4.26-10.45-10.11Z"/>
      <path class="cls-7" d="M44.22,245.9v19.77h-2.82v-8.81h-11.35v8.81h-2.82v-19.77h2.82v8.5h11.35v-8.5h2.82Z"/>
      <path class="cls-7" d="M51,245.9h2.82v19.77h-2.82v-19.77Z"/>
      <path class="cls-7" d="M60.6,245.9h2.82v17.31h10.7v2.46h-13.53v-19.77Z"/>
      <path class="cls-7" d="M78.22,245.9h8.33c6.35,0,10.67,4.01,10.67,9.88s-4.32,9.88-10.67,9.88h-8.33v-19.77ZM86.38,263.21c4.89,0,8.02-2.99,8.02-7.43s-3.13-7.43-8.02-7.43h-5.34v14.85h5.34Z"/>
      <path class="cls-7" d="M115.6,265.66l-4.26-6.07c-.4.03-.82.06-1.24.06h-4.89v6.01h-2.82v-19.77h7.71c5.14,0,8.25,2.6,8.25,6.89,0,3.05-1.58,5.25-4.35,6.24l4.69,6.64h-3.08ZM115.52,252.79c0-2.82-1.89-4.43-5.51-4.43h-4.8v8.89h4.8c3.61,0,5.51-1.64,5.51-4.46Z"/>
      <path class="cls-7" d="M138.11,263.21v2.46h-14.34v-19.77h13.95v2.46h-11.13v6.07h9.91v2.4h-9.91v6.38h11.52Z"/>
      <path class="cls-7" d="M160.52,245.9v19.77h-2.32l-11.86-14.74v14.74h-2.82v-19.77h2.32l11.86,14.74v-14.74h2.82Z"/>
      <path class="cls-7" d="M169.42,246.46c0,.54-.08.96-.45,2l-1.36,3.95h-1.78l1.04-4.21c-.71-.25-1.19-.9-1.19-1.75,0-1.13.82-1.92,1.89-1.92s1.84.82,1.84,1.92Z"/>
      <path class="cls-7" d="M173.03,263.41l1.04-2.2c1.47,1.33,3.98,2.29,6.52,2.29,3.42,0,4.89-1.33,4.89-3.05,0-4.83-11.97-1.78-11.97-9.12,0-3.05,2.37-5.65,7.57-5.65,2.32,0,4.72.62,6.35,1.75l-.93,2.26c-1.72-1.1-3.67-1.61-5.42-1.61-3.36,0-4.8,1.41-4.8,3.13,0,4.83,11.97,1.81,11.97,9.06,0,3.02-2.43,5.62-7.65,5.62-3.02,0-5.99-1.02-7.57-2.49Z"/>
      <path class="cls-7" d="M211.55,265.66l-.03-14.4-7.14,12h-1.3l-7.14-11.92v14.32h-2.71v-19.77h2.32l8.25,13.89,8.13-13.89h2.32l.03,19.77h-2.71Z"/>
      <path class="cls-7" d="M221.03,245.9h2.82v19.77h-2.82v-19.77Z"/>
      <path class="cls-7" d="M230.63,245.9h2.82v17.31h10.7v2.46h-13.53v-19.77Z"/>
      <path class="cls-7" d="M262.59,263.21v2.46h-14.34v-19.77h13.95v2.46h-11.13v6.07h9.91v2.4h-9.91v6.38h11.52Z"/>
    </g>
    <path class="cls-1" d="M207.64,107.86c-3.82-.05-10.62.79-18.09,7.1-5.57,4.71-9.47,10.74-11.88,15.12"/>
    <path class="cls-5" d="M57.37,108.87c3.82-.05,10.62.79,18.09,7.1,5.57,4.71,9.47,10.74,11.88,15.12"/>
    <path class="cls-6" d="M205.32,93.44c1.96,5.16,7.06,8.26,12.1,7.6,4.09-.54,7.6-3.5,9.07-7.6"/>
    <path class="cls-6" d="M41.56,93.34c1.96,5.16,7.06,8.26,12.1,7.6,4.09-.54,7.6-3.5,9.07-7.6"/>
    <path class="cls-6" d="M123.44,74.48c1.96,5.16,7.06,8.26,12.1,7.6,4.09-.54,7.6-3.5,9.07-7.6"/>
    <path class="cls-3" d="M82.27,184.76l9.65-4.72c.94-.46,2.02-.59,3.03-.32,7.92,2.07,13.85,8.35,14.95,15.83,1.63,11.09-8.03,20.18-16.58,21.6,0,0-8.43,1.4-16.58-5.4-9.46-7.9-5.92-30.43,2.05-55.29"/>
    <path class="cls-3" d="M109.9,82.17c-7.08,14.51-18.92,39.66-27.67,64.19"/>
    <path class="cls-3" d="M187.18,156.65c8,24.74,11.55,47.16,2.04,55.02-8.19,6.78-16.66,5.38-16.66,5.38-8.6-1.42-18.31-10.47-16.67-21.52,1.11-7.45,7.06-13.7,15.03-15.77,1.02-.27,2.1-.14,3.05.32l9.71,4.7"/>
    <path class="cls-2" d="M184.09,147.58c-8.83-24.77-20.97-50.35-28.2-65.01"/>
    <path class="cls-3" d="M108.86,125.72l-11.79,36.48,11.79-36.48Z"/>
    <path class="cls-3" d="M157.28,125.72l14.67,34.97-14.67-34.97Z"/>
    <path class="cls-1" d="M242.8,71.93c0,17.25-8.29,31.8-19.6,36.25-2.32.91-4.77,1.4-7.3,1.4-1.79,0-3.54-.25-5.23-.71-12.35-3.41-21.67-18.65-21.67-36.94,0-20.79,12.04-37.65,26.9-37.65s26.9,16.86,26.9,37.65Z"/>
    <ellipse class="cls-3" cx="133.07" cy="47.72" rx="34.96" ry="45.72"/>
    <path class="cls-4" d="M212.42,118.31l6.65,5.37-31.9,32.97-50.29,51.99h-7.63l-50.47-52.17-31.72-32.79,6.94-7.41,28.22,30.09,14.85,15.83,32.02,34.14c.33.35.79.55,1.27.54l5.46-.14c.44,0,.87-.19,1.17-.51l34.77-35.92,12.31-12.72,28.34-29.27Z"/>
    <path class="cls-1" d="M222.76,108.27c2.61-.59,6.48-1.09,10.76,0,29.46,7.53,45.22,82.99,21.52,102.45-8.61,7.07-13.51,5.76-15.18,2.3-1.73-3.57,1.36-8.06,7.55-19.52,5.32-9.85,7.65-26.94-8.51-58.28"/>
    <path class="cls-5" d="M25.25,71.93c0,17.25,8.29,31.8,19.6,36.25,2.32.91,4.77,1.4,7.3,1.4,1.79,0,3.54-.25,5.23-.71,12.35-3.41,21.67-18.65,21.67-36.94,0-20.79-12.04-37.65-26.9-37.65s-26.9,16.86-26.9,37.65Z"/>
    <path class="cls-5" d="M45.28,108.27c-2.61-.59-6.48-1.09-10.76,0-29.46,7.53-45.22,82.99-21.52,102.45,8.61,7.07,14.98,4.38,16.65.93,1.73-3.57-2.84-6.69-9.03-18.14-5.32-9.85-7.65-26.94,8.51-58.28"/>
  </g>
</svg>